<svg id="Capa_1" enable-background="new 0 0 512 512" height="512" viewBox="0 0 512 512" width="512" xmlns="http://www.w3.org/2000/svg"><g><g fill="#020288"><path d="m212.634 140.645c5.522 0 10-4.477 10-10 0-5.522-4.478-10-10-10h-45.024v-34.207c0-2.727-1.113-5.335-3.082-7.221l-53.366-51.126c-3.869-3.707-9.969-3.705-13.836 0l-53.368 51.126c-1.969 1.886-3.082 4.494-3.082 7.221v34.208h-30.876c-5.523 0-10 4.478-10 10v66.018c0 5.522 4.477 10 10 10h30.876v116.936h-30.876c-5.523 0-10 4.478-10 10v66.018c0 5.522 4.477 10 10 10h30.876v67.072c0 5.522 4.478 10 10 10h106.733c5.522 0 10-4.478 10-10v-67.072h45.024c5.522 0 10-4.478 10-10s-4.478-10-10-10h-45.024v-46.018h45.024c5.522 0 10-4.478 10-10s-4.478-10-10-10h-45.024v-116.937h45.024c5.522 0 10-4.478 10-10 0-5.523-4.478-10-10-10h-45.024v-46.018zm-192.634 46.018v-46.018h20.876v46.018zm0 202.953v-46.018h20.876v46.018zm127.609 77.073h-86.733v-375.983l43.367-41.546 43.366 41.546z"/><path d="m502 206.663c5.522 0 10-4.478 10-10v-66.018c0-5.522-4.478-10-10-10h-30.876v-34.207c0-2.727-1.113-5.335-3.082-7.221l-53.367-51.126c-3.867-3.707-9.969-3.705-13.836 0l-53.366 51.126c-1.969 1.886-3.082 4.494-3.082 7.221v34.208h-55.024c-5.522 0-10 4.478-10 10 0 5.523 4.478 10 10 10h55.024v46.018h-55.024c-5.522 0-10 4.477-10 10 0 5.522 4.478 10 10 10h55.024v116.936h-55.024c-5.522 0-10 4.478-10 10s4.478 10 10 10h55.024v46.018h-55.024c-5.522 0-10 4.478-10 10s4.478 10 10 10h55.024v67.072c0 5.522 4.478 10 10 10h106.733c5.523 0 10-4.478 10-10v-67.072h30.876c5.522 0 10-4.478 10-10v-66.018c0-5.522-4.478-10-10-10h-30.876v-116.937zm-10-66.018v46.018h-20.876v-46.018zm-127.609 326.044v-375.983l43.366-41.546 43.367 41.546v39.863c0 .025-.001.051-.001.076v66.018c0 .026.001.051.001.076v136.783c0 .026-.001.051-.001.076v66.018c0 .026.001.051.001.076v66.996h-86.733zm127.609-123.09v46.018h-20.876v-46.018z"/><path d="m407.757 143.513c-5.522 0-10 4.478-10 10v20.282c0 5.522 4.478 10 10 10s10-4.478 10-10v-20.282c0-5.523-4.478-10-10-10z"/><path d="m407.757 346.466c-5.522 0-10 4.478-10 10v20.282c0 5.523 4.478 10 10 10s10-4.477 10-10v-20.282c0-5.523-4.478-10-10-10z"/><path d="m104.243 346.466c-5.522 0-10 4.478-10 10v20.282c0 5.523 4.478 10 10 10s10-4.477 10-10v-20.282c0-5.523-4.477-10-10-10z"/><path d="m104.243 143.513c-5.522 0-10 4.478-10 10v20.282c0 5.522 4.478 10 10 10s10-4.478 10-10v-20.282c0-5.523-4.477-10-10-10z"/></g><g><path d="m312.261 488.66h-112.522v-411.421l56.261-53.899 56.261 53.899z" fill="#a4fcc4"/><g><path d="m256 386.748c-5.523 0-10-4.477-10-10v-20.282c0-5.522 4.477-10 10-10 5.522 0 10 4.478 10 10v20.282c0 5.523-4.478 10-10 10z" fill="#020288"/></g><g><path d="m256 183.795c-5.523 0-10-4.478-10-10v-20.282c0-5.522 4.477-10 10-10 5.522 0 10 4.478 10 10v20.282c0 5.522-4.478 10-10 10z" fill="#020288"/></g></g></g></svg>