<svg id="Capa_1" enable-background="new 0 0 512 512" height="512" viewBox="0 0 512 512" width="512" xmlns="http://www.w3.org/2000/svg"><g><g><path d="m296.568 275.394c-35.48 0-65.737 22.362-77.445 53.761h68.184c15.943 0 28.866 12.924 28.866 28.866 0 15.943-12.924 28.866-28.866 28.866h-68.184c11.708 31.399 41.965 53.761 77.445 53.761 45.634 0 82.628-36.994 82.628-82.628 0-45.633-36.994-82.626-82.628-82.626z" fill="#b2f0fb"/><g><path d="m214.707 68.106h171.052v82.041h-171.052z" fill="#b2f0fb"/></g></g><g fill="#020288"><path d="m394.293 0h-195.449c-21.975 0-39.853 17.878-39.853 39.853v279.303h-71.137c-5.522 0-10 4.478-10 10v57.732c0 5.522 4.478 10 10 10h71.137v75.26c0 21.975 17.878 39.853 39.853 39.853h195.449c21.975 0 39.853-17.878 39.853-39.853v-432.295c0-21.975-17.878-39.853-39.853-39.853zm-296.439 339.155h189.453c10.403 0 18.866 8.463 18.866 18.866s-8.463 18.866-18.866 18.866h-189.453zm316.292 132.992c0 10.946-8.906 19.853-19.853 19.853h-195.449c-10.946 0-19.853-8.906-19.853-19.853v-75.26h108.316c21.431 0 38.866-17.436 38.866-38.866 0-21.431-17.435-38.866-38.866-38.866h-108.316v-279.302c0-10.946 8.906-19.853 19.853-19.853h195.449c10.946 0 19.853 8.906 19.853 19.853z"/><path d="m308.265 182.106h-21.105c-5.523 0-10 4.478-10 10 0 5.523 4.477 10 10 10h21.105c5.523 0 10-4.477 10-10 0-5.522-4.478-10-10-10z"/><path d="m243.488 182.106h-21.106c-5.522 0-10 4.478-10 10 0 5.523 4.478 10 10 10h21.106c5.522 0 10-4.477 10-10 0-5.522-4.477-10-10-10z"/><path d="m373.042 182.106h-21.107c-5.522 0-10 4.478-10 10 0 5.523 4.478 10 10 10h21.107c5.523 0 10-4.477 10-10 0-5.522-4.477-10-10-10z"/><path d="m308.265 229.894h-21.105c-5.523 0-10 4.477-10 10 0 5.522 4.477 10 10 10h21.105c5.523 0 10-4.478 10-10 0-5.523-4.478-10-10-10z"/><path d="m243.488 229.894h-21.106c-5.522 0-10 4.477-10 10 0 5.522 4.478 10 10 10h21.106c5.522 0 10-4.478 10-10 0-5.523-4.477-10-10-10z"/><path d="m373.042 229.894h-21.107c-5.522 0-10 4.477-10 10 0 5.522 4.478 10 10 10h21.107c5.523 0 10-4.478 10-10 0-5.523-4.477-10-10-10z"/></g></g></svg>