<svg id="Capa_1" enable-background="new 0 0 512 512" height="512" viewBox="0 0 512 512" width="512" xmlns="http://www.w3.org/2000/svg"><g><g fill="#020288"><path d="m349.815 0h-187.63c-26.753 0-48.519 21.765-48.519 48.518v381.158.024.024 33.759c0 26.753 21.766 48.518 48.519 48.518h187.631c26.753 0 48.519-21.765 48.519-48.518v-414.965c-.001-26.753-21.767-48.518-48.52-48.518zm28.519 66.276v353.445l-244.668-.044v-353.401zm-216.149-46.276h187.631c14.97 0 27.283 11.595 28.431 26.275l-244.49-.044c1.169-14.659 13.473-26.231 28.428-26.231zm216.149 443.482c0 15.725-12.793 28.518-28.519 28.518h-187.63c-15.726 0-28.519-12.793-28.519-28.518v-23.759h244.668z"/><path d="m245.659 475.861h20.682c5.523 0 10-4.478 10-10s-4.477-10-10-10h-20.682c-5.522 0-10 4.478-10 10 0 5.523 4.478 10 10 10z"/></g><g><path d="m177.577 175.42c0 37.361 26.689 68.554 62.233 75.935v126.598h32.38v-14.646h39.731v-23.908h-11.198v-27.04h11.198v-23.908h-39.731v-37.096c35.544-7.381 62.233-38.574 62.233-75.935 0-42.852-35.111-77.59-78.423-77.59s-78.423 34.738-78.423 77.59zm113.12 0c0 18.91-15.565 34.295-34.697 34.295-19.131 0-34.696-15.385-34.696-34.295s15.565-34.295 34.696-34.295c19.132 0 34.697 15.385 34.697 34.295z" fill="#b2f0fb"/></g></g></svg>