<svg id="Capa_1" enable-background="new 0 0 512 512" height="512" viewBox="0 0 512 512" width="512" xmlns="http://www.w3.org/2000/svg"><g><g><g fill="#020288"><path d="m256 79.894c-97.105 0-176.106 79.001-176.106 176.106s79.001 176.106 176.106 176.106 176.106-79.001 176.106-176.106-79.001-176.106-176.106-176.106zm0 332.212c-86.077 0-156.106-70.029-156.106-156.106s70.029-156.106 156.106-156.106 156.106 70.028 156.106 156.106-70.029 156.106-156.106 156.106z"/><path d="m502 246h-10.876c-2.454-59.107-26.636-114.321-68.719-156.404-42.084-42.083-97.298-66.265-156.405-68.719v-10.877c0-5.523-4.478-10-10-10-5.523 0-10 4.477-10 10v10.877c-59.107 2.454-114.321 26.636-156.404 68.719s-66.265 97.297-68.72 156.404h-10.876c-5.523 0-10 4.477-10 10s4.477 10 10 10h10.876c2.454 59.107 26.636 114.321 68.719 156.404s97.298 66.265 156.404 68.719v10.877c0 5.523 4.477 10 10 10 5.522 0 10-4.477 10-10v-10.877c59.107-2.454 114.321-26.636 156.404-68.719s66.265-97.297 68.719-156.404h10.878c5.522 0 10-4.477 10-10s-4.478-10-10-10zm-236 225.101v-10.44c0-5.523-4.478-10-10-10-5.523 0-10 4.477-10 10v10.44c-110.796-5.089-200.012-94.305-205.102-205.101h10.441c5.522 0 10-4.477 10-10s-4.478-10-10-10h-10.441c5.09-110.796 94.306-200.012 205.102-205.101v10.44c0 5.523 4.477 10 10 10 5.522 0 10-4.477 10-10v-10.44c110.796 5.089 200.012 94.305 205.102 205.101h-10.44c-5.522 0-10 4.477-10 10s4.478 10 10 10h10.44c-5.09 110.796-94.306 200.012-205.102 205.101z"/></g></g><g><g><path d="m307.723 156.714h-103.446c0 18.257-15.016 33.11-33.473 33.11v100.262c0 26.343 15.597 50.245 39.866 61.094l45.33 20.264 45.33-20.263c24.269-10.849 39.866-34.751 39.866-61.094v-100.263c-18.457 0-33.473-14.853-33.473-33.11z" fill="#e2c4ff"/></g><g><path d="m252.878 291.4c-2.515 0-4.953-.949-6.813-2.681l-15.963-14.862c-4.042-3.763-4.268-10.091-.505-14.133 3.765-4.042 10.093-4.267 14.134-.504l7.526 7.008 15.62-22.439c3.154-4.533 9.386-5.651 13.92-2.495 4.533 3.155 5.649 9.388 2.494 13.92l-22.205 31.9c-1.655 2.379-4.262 3.922-7.145 4.23-.354.037-.71.056-1.063.056z" fill="#020288"/></g></g></g></svg>