<svg id="Capa_1" enable-background="new 0 0 512 512" height="512" viewBox="0 0 512 512" width="512" xmlns="http://www.w3.org/2000/svg"><g><g><path d="m313.161 215.596h-114.322c0 20.176-16.595 36.591-36.993 36.591v110.804c0 29.113 17.237 55.528 44.058 67.518l50.096 22.393 50.096-22.394c26.821-11.99 44.058-38.405 44.058-67.518v-110.803c-20.398 0-36.993-16.415-36.993-36.591z" fill="#a4fcc4"/></g><g fill="#020288"><path d="m241.724 329.647c-4.041-3.76-10.369-3.537-14.134.505-3.763 4.042-3.537 10.37.505 14.134l17.642 16.425c1.86 1.731 4.299 2.681 6.814 2.681.354 0 .709-.018 1.063-.057 2.883-.309 5.489-1.852 7.145-4.231l24.54-35.254c3.155-4.532 2.039-10.765-2.494-13.92-4.535-3.156-10.765-2.039-13.92 2.494l-17.955 25.793z"/><path d="m477.143 183.064-40.974-37.638v-86.602c0-5.489-4.425-9.952-9.913-10l-63.778-.555h-.087c-2.636 0-5.167 1.041-7.04 2.898-1.895 1.878-2.96 4.435-2.96 7.102v19.537l-69.056-67.269c-.267-.26-.548-.505-.843-.734-8.139-6.322-18.292-9.803-28.592-9.803-10.299 0-20.453 3.481-28.592 9.804-.221.172-.434.353-.64.542l-189.82 174.813c-2.056 1.893-3.226 4.561-3.226 7.355v75.946c0 3.97 2.349 7.564 5.983 9.158 3.635 1.595 7.87.888 10.79-1.802l16.318-15.026v221.182c0 16.557 13.47 30.026 30.025 30.026h322.521c16.556 0 30.025-13.47 30.025-30.026v-217.471l16.321 15.016c1.883 1.732 4.311 2.641 6.773 2.641 1.357 0 2.725-.276 4.017-.843 3.634-1.595 5.981-5.188 5.981-9.157v-81.73c.002-2.799-1.172-5.47-3.233-7.364zm-49.857 298.91c0 5.528-4.497 10.026-10.025 10.026h-322.522c-5.528 0-10.025-4.498-10.025-10.026v-239.599l169.189-155.791 173.383 159.517zm33.092-232.605-199.707-183.735c-1.913-1.761-4.342-2.641-6.77-2.641-2.43 0-4.86.881-6.773 2.644l-195.506 180.022v-48.76l186.263-171.535c4.594-3.462 10.265-5.364 16.015-5.364 5.707 0 11.337 1.874 15.913 5.286l85.6 83.386c2.879 2.805 7.159 3.612 10.865 2.051 3.704-1.563 6.112-5.193 6.112-9.214v-33.153l43.778.381v81.082c0 2.8 1.174 5.471 3.235 7.364l40.974 37.638v54.548z"/></g></g></svg>